<svg width="203" height="256" viewBox="0 0 203 256" fill="none" xmlns="http://www.w3.org/2000/svg">
<rect y="42" width="200" height="200" fill="#F5EDE0"/>
<path d="M30.248 155.872C29.3947 155.872 28.712 155.701 28.2 155.36C27.7733 155.019 27.56 154.592 27.56 154.08C27.56 153.568 27.816 153.141 28.328 152.8C28.9253 152.459 29.6507 152.331 30.504 152.416C32.552 152.587 34.0453 152.672 34.984 152.672C37.3733 152.672 39.2933 152.288 40.744 151.52C42.1947 150.667 43.176 149.259 43.688 147.296C44.456 144.224 44.84 132.576 44.84 112.352C44.84 92.128 44.456 80.48 43.688 77.408C43.176 75.4453 42.1947 74.08 40.744 73.312C39.2933 72.4587 37.3733 72.032 34.984 72.032C34.0453 72.032 32.552 72.1173 30.504 72.288H29.992C29.224 72.288 28.6267 72.1173 28.2 71.776C27.7733 71.4347 27.56 71.008 27.56 70.496C27.56 70.0693 27.7733 69.6853 28.2 69.344C28.712 69.0027 29.3947 68.832 30.248 68.832L95.4 68.96C97.3627 68.96 98.5147 70.496 98.856 73.568C99.7947 82.016 100.264 88.416 100.264 92.768C100.264 93.7067 100.051 94.4747 99.624 95.072C99.2827 95.584 98.8133 95.84 98.216 95.84C97.5333 95.84 96.936 95.5413 96.424 94.944C95.912 94.3467 95.656 93.536 95.656 92.512C95.656 84.064 93.224 78.2613 88.36 75.104C86.312 73.7387 83.6667 72.928 80.424 72.672C77.1813 72.416 72.1467 72.288 65.32 72.288C62.0773 72.288 59.6453 72.6293 58.024 73.312C56.488 73.9093 55.464 75.2747 54.952 77.408C54.184 80.48 53.8 90.336 53.8 106.976C53.8 109.195 54.9093 110.304 57.128 110.304C64.6373 110.304 69.8427 110.048 72.744 109.536C74.8773 109.195 76.4987 108.171 77.608 106.464C78.7173 104.757 79.272 102.795 79.272 100.576C79.272 99.6373 79.2293 98.9547 79.144 98.528V98.144C79.144 97.632 79.3147 97.248 79.656 96.992C79.9973 96.736 80.3813 96.608 80.808 96.608C81.32 96.608 81.7467 96.7787 82.088 97.12C82.4293 97.376 82.6 97.8027 82.6 98.4V125.024C82.6 125.621 82.4293 126.091 82.088 126.432C81.7467 126.688 81.32 126.816 80.808 126.816C80.296 126.816 79.8693 126.645 79.528 126.304C79.1867 125.963 79.0587 125.493 79.144 124.896C79.2293 124.469 79.272 123.787 79.272 122.848C79.272 120.971 78.7173 119.349 77.608 117.984C76.584 116.533 74.9627 115.595 72.744 115.168C71.1227 114.827 69.032 114.613 66.472 114.528C63.912 114.443 60.7973 114.4 57.128 114.4C54.9093 114.4 53.8 115.509 53.8 117.728C53.8 134.368 54.184 144.224 54.952 147.296C55.5493 149.515 56.744 150.923 58.536 151.52C60.328 152.117 62.9733 152.416 66.472 152.416H74.152C77.8213 152.416 81.5333 152.16 85.288 151.648C89.128 151.136 92.0293 149.216 93.992 145.888C96.04 142.475 97.064 137.056 97.064 129.632C97.064 128.693 97.2773 127.968 97.704 127.456C98.1307 126.944 98.6 126.688 99.112 126.688C99.7947 126.688 100.349 126.987 100.776 127.584C101.288 128.096 101.544 128.907 101.544 130.016C101.544 135.648 101.288 142.048 100.776 149.216C100.605 151.947 100.179 153.781 99.496 154.72C98.8987 155.573 97.7467 156 96.04 156H90.152C86.7387 155.915 79.4853 155.872 68.392 155.872H30.248Z" fill="#1E1E1E"/>
<path d="M139.904 211.872H120.832H101.248C100.395 211.872 99.712 211.701 99.2 211.36C98.7733 211.019 98.56 210.592 98.56 210.08C98.56 209.653 98.7733 209.269 99.2 208.928C99.6267 208.587 100.224 208.416 100.992 208.416L105.984 208.544C108.373 208.544 110.379 208.203 112 207.52C113.621 206.752 114.688 205.344 115.2 203.296C115.968 200.224 116.352 188.576 116.352 168.352C116.352 148.299 115.968 136.736 115.2 133.664C114.688 131.616 113.621 130.208 112 129.44C110.379 128.672 108.416 128.288 106.112 128.288C104.747 128.288 103.125 128.373 101.248 128.544H100.864C100.181 128.544 99.6267 128.373 99.2 128.032C98.7733 127.691 98.56 127.307 98.56 126.88C98.56 126.368 98.7733 125.941 99.2 125.6C99.712 125.259 100.395 125.088 101.248 125.088H120.832H140.416C141.269 125.088 141.909 125.259 142.336 125.6C142.848 125.941 143.104 126.368 143.104 126.88C143.104 127.392 142.805 127.819 142.208 128.16C141.696 128.501 141.013 128.629 140.16 128.544C138.112 128.373 136.619 128.288 135.68 128.288C133.12 128.288 131.072 128.715 129.536 129.568C128 130.336 126.976 131.701 126.464 133.664C125.696 136.736 125.312 148.299 125.312 168.352C125.312 188.576 125.696 200.224 126.464 203.296C127.061 205.515 128.299 206.923 130.176 207.52C132.139 208.117 134.912 208.416 138.496 208.416H142.464C146.901 208.416 151.253 208.16 155.52 207.648C159.36 207.136 162.261 205.216 164.224 201.888C166.272 198.475 167.296 193.056 167.296 185.632C167.296 184.693 167.509 183.968 167.936 183.456C168.363 182.944 168.832 182.688 169.344 182.688C170.027 182.688 170.581 182.987 171.008 183.584C171.52 184.096 171.776 184.907 171.776 186.016C171.776 191.648 171.52 198.048 171.008 205.216C170.837 207.947 170.411 209.781 169.728 210.72C169.131 211.573 167.979 212 166.272 212L139.904 211.872Z" fill="#859382"/>
</svg>
